<svg width="703" height="92" viewBox="0 0 703 92" fill="none" xmlns="http://www.w3.org/2000/svg">
<path d="M116.918 50.1205L123.415 37.5434H105.918V23.1216H91.0582V67.8228C91.0582 75.2119 92.2394 79.9179 95.0132 83.5443C98.7994 88.5437 105.169 91.1849 113.448 91.1849C116.445 91.2153 119.433 90.863 122.339 90.1368L122.687 90.011L120.388 77.4339L119.945 77.5387C118.092 77.8616 116.216 78.0333 114.334 78.0523C111.234 78.0523 108.956 77.2452 107.553 75.6521C106.424 74.321 105.939 72.4554 105.939 69.3635V50.1205H116.918Z" fill="black"/>
<path d="M164.526 36.8095C163.132 36.5744 161.721 36.4552 160.307 36.4531C154.443 36.4531 148.917 38.5493 145.542 42.0395V37.5222H131.209V90.1366H146.08V57.2683C147.746 54.3546 152.334 50.1203 158.345 50.1203C160.002 50.082 161.657 50.2511 163.271 50.6234L163.777 50.7911L165.506 36.9457L164.526 36.8095Z" fill="black"/>
<path d="M265.856 70.8932C264.538 72.9058 262.743 74.566 260.628 75.7282C258.513 76.8905 256.144 77.5191 253.728 77.5591C245.617 77.5591 239.732 71.8155 239.732 63.9338C239.701 62.1301 240.034 60.3385 240.71 58.6645C241.387 56.9905 242.394 55.4679 243.671 54.1865C244.949 52.905 246.472 51.8906 248.15 51.2031C249.828 50.5155 251.628 50.1686 253.443 50.1828C255.734 50.2022 257.988 50.7568 260.024 51.8018C262.059 52.8469 263.819 54.3532 265.16 56.1989L265.445 56.5657L275.991 47.353L275.738 47.0281C273.057 43.7212 269.658 41.0604 265.795 39.2453C261.932 37.4301 257.705 36.5077 253.432 36.5471C237.433 36.5471 224.894 48.5897 224.894 63.9653C224.894 79.54 237.117 91.2786 253.369 91.2786C263.525 91.2786 271.393 87.4216 277.405 79.4771L277.658 79.1312L266.183 70.5997L265.856 70.8932Z" fill="black"/>
<path d="M303.454 36.4531C288.689 36.4531 277.615 48.2442 277.615 63.8713C277.615 79.9491 289.037 91.1846 305.395 91.1846C313.885 91.1846 322.269 87.5687 327.152 81.7518L327.416 81.4478L318.842 72.9583L318.536 73.2832C317.27 74.6562 312.588 79.1211 305.722 79.1211C298.561 79.1211 293.066 74.457 292.106 67.7178H328.154L328.218 67.3614C328.448 66.0324 328.557 64.6854 328.544 63.3368C328.544 48.2652 317.523 36.4531 303.454 36.4531ZM303.454 48.5167C305.803 48.5217 308.076 49.346 309.876 50.8457C311.676 52.3455 312.89 54.4255 313.305 56.7233H292.771C293.374 54.3662 294.753 52.2776 296.689 50.7903C298.626 49.303 301.007 48.5026 303.454 48.5167V48.5167Z" fill="black"/>
<path d="M369.57 36.3473C369.57 31.6728 370.266 29.8386 371.405 28.4132C372.998 26.5371 375.529 25.5834 378.925 25.5834C380.304 25.5945 381.678 25.7669 383.017 26.0969L383.47 26.2227L385.78 13.5198L385.39 13.4255C382.634 12.7289 379.796 12.4011 376.953 12.4507C370.831 12.2979 364.891 14.5239 360.395 18.6555C356.429 22.4601 354.657 27.7529 354.657 35.8128V90.1356H369.528V50.1193H394.544V90.1356H409.404V37.5212H369.57V36.3473Z" fill="black"/>
<path d="M401.969 10.3124C400.132 10.3598 398.35 10.9445 396.845 11.9932C395.341 13.042 394.181 14.5083 393.511 16.2088C392.841 17.9092 392.69 19.7683 393.077 21.5534C393.465 23.3386 394.373 24.9706 395.689 26.2453C397.005 27.52 398.67 28.3807 400.476 28.7199C402.282 29.0591 404.148 28.8617 405.841 28.1523C407.535 27.443 408.98 26.2531 409.996 24.7317C411.013 23.2103 411.555 21.4248 411.556 19.5985C411.552 18.3597 411.299 17.1342 410.813 15.9935C410.327 14.8528 409.617 13.8199 408.724 12.9552C407.831 12.0906 406.774 11.4115 405.614 10.9577C404.454 10.5039 403.215 10.2845 401.969 10.3124V10.3124Z" fill="black"/>
<path d="M447.931 36.4537C442.758 36.4167 437.72 38.0989 433.619 41.233V37.5228H419.287V90.1372H434.157V56.2313C435.628 54.384 437.489 52.8795 439.608 51.8238C441.727 50.7681 444.053 50.1868 446.423 50.1209C449.21 50.0065 451.929 50.9939 453.985 52.8669C456.094 54.9631 456.98 57.7615 456.98 62.2998V90.1372H471.84V63.3374C471.84 55.0679 470.142 49.3872 466.356 44.9328C464.098 42.263 461.278 40.1194 458.094 38.654C454.91 37.1887 451.44 36.4375 447.931 36.4537V36.4537Z" fill="black"/>
<path d="M570.122 36.4523C564.946 36.4129 559.904 38.0953 555.8 41.2317V37.5214H541.478V90.1358H556.338V56.2299C557.81 54.3813 559.673 52.876 561.794 51.8202C563.915 50.7645 566.243 50.1839 568.614 50.1195C571.397 50.0079 574.112 50.9951 576.166 52.8655C578.275 54.9617 579.161 57.7601 579.161 62.2984V90.1358H594.021V63.336C594.021 55.0665 592.333 49.3858 588.537 44.9314C586.281 42.2618 583.463 40.1183 580.28 38.6529C577.098 37.1875 573.63 36.4362 570.122 36.4523V36.4523Z" fill="black"/>
<path d="M639.518 70.8932C638.199 72.9058 636.404 74.566 634.289 75.7282C632.175 76.8905 629.806 77.5191 627.389 77.5591C619.279 77.5591 613.394 71.8155 613.394 63.9338C613.363 62.1301 613.696 60.3385 614.372 58.6645C615.049 56.9905 616.055 55.4679 617.333 54.1865C618.611 52.905 620.133 51.8906 621.812 51.2031C623.49 50.5155 625.289 50.1686 627.105 50.1828C629.396 50.2013 631.65 50.7556 633.686 51.8007C635.721 52.8459 637.481 54.3526 638.822 56.1989L639.106 56.5657L649.653 47.353L649.4 47.0281C646.719 43.7212 643.32 41.0604 639.457 39.2453C635.593 37.4301 631.367 36.5077 627.094 36.5471C611.095 36.5471 598.566 48.5897 598.566 63.9653C598.566 79.54 610.779 91.2786 627.041 91.2786C637.208 91.2786 645.065 87.4216 651.077 79.4771L651.34 79.1312L639.855 70.5997L639.518 70.8932Z" fill="black"/>
<path d="M677.085 36.4531C662.32 36.4531 651.235 48.2442 651.235 63.8713C651.235 79.9491 662.668 91.1846 679.015 91.1846C687.515 91.1846 695.889 87.5687 700.772 81.7518L701.036 81.4478L692.462 72.9583L692.156 73.2832C690.89 74.6562 686.208 79.1211 679.342 79.1211C672.181 79.1211 666.686 74.457 665.726 67.7178H701.774L701.838 67.3614C702.072 66.0327 702.185 64.6857 702.175 63.3368C702.217 48.2652 691.196 36.4531 677.085 36.4531ZM666.444 56.7233C667.041 54.3714 668.414 52.2859 670.342 50.7988C672.271 49.3116 674.644 48.5083 677.085 48.5167C679.432 48.5242 681.702 49.3495 683.5 50.8491C685.298 52.3486 686.51 54.4273 686.925 56.7233H666.444Z" fill="black"/>
<path d="M204.961 41.233C200.669 38.0645 195.448 36.3852 190.101 36.4537C175.494 36.4537 164.041 48.4963 164.041 63.8718C164.01 70.6247 166.428 77.1624 170.854 82.2869C173.368 85.0968 176.455 87.3433 179.91 88.8774C183.365 90.4115 187.108 91.1982 190.892 91.1852C193.923 91.2002 196.926 90.6196 199.73 89.4768L199.994 89.372V81.2283L205.109 85.8609L209.77 90.1371H219.262V37.5227H204.961V41.233ZM191.947 50.1208C194.362 50.1082 196.748 50.6536 198.915 51.714C201.082 52.7745 202.971 54.3209 204.434 56.2312V71.4181C203.044 73.3335 201.213 74.8904 199.094 75.9589C196.974 77.0273 194.629 77.5763 192.253 77.56C184.649 77.56 178.911 71.6906 178.911 63.9347C178.911 54.9421 185.619 50.1208 191.947 50.1208Z" fill="black"/>
<path d="M518.128 41.233C513.836 38.0645 508.615 36.3852 503.268 36.4537C488.661 36.4537 477.208 48.4963 477.208 63.8718C477.168 70.6206 479.575 77.1579 483.989 82.2869C486.504 85.0968 489.591 87.3433 493.046 88.8774C496.5 90.4115 500.244 91.1982 504.028 91.1852C507.058 91.2002 510.062 90.6196 512.866 89.4768L513.129 89.372V81.2283C513.899 81.9096 515.407 83.3245 518.244 85.8609L522.938 90.1371H532.429V37.5227H518.128V41.233ZM505.103 50.1208C507.519 50.1082 509.904 50.6536 512.071 51.714C514.238 52.7745 516.128 54.3209 517.59 56.2312V71.4181C516.201 73.332 514.372 74.8881 512.255 75.9565C510.138 77.0249 507.794 77.5747 505.42 77.56C497.816 77.56 492.078 71.6906 492.078 63.9347C492.078 54.9421 498.786 50.1208 505.103 50.1208V50.1208Z" fill="black"/>
<path fill-rule="evenodd" clip-rule="evenodd" d="M39.7494 36.2851L50.0006 46.4516L60.1147 36.4318L49.8635 26.2653L39.7494 36.2851ZM50.2748 0L40.0763 10.1665L63.3841 33.2875L73.6353 23.121L50.2748 0Z" fill="#00F2B1"/>
<path fill-rule="evenodd" clip-rule="evenodd" d="M33.8226 10.1665L23.5714 0L13.4468 10.0198L23.698 20.1863L33.8226 10.1665ZM0 23.3411L23.3078 46.4516L33.559 36.2851L10.2512 13.227L0 23.3411Z" fill="#48E0FF"/>
</svg>
